<svg xmlns="http://www.w3.org/2000/svg" width="300" height="300" viewBox="0 0 300 300" fill="none">
  <style>
    .line { stroke:#ffffff; stroke-width:1; fill:none; }
  </style>

  <!-- Mysore Palace (mini) -->
  <path class="line" d="M20 280 h260 v-15 h-20 v-15 h-30 v15 h-20 v-25 h-30 v25 h-20 v-15 h-30 v15 h-20 v-15 h-30 v15 h-20 z"/>

  <!-- Elephant (mini) -->
  <path class="line" d="M40 60 c10 -20 40 -20 50 0 v15 h20 v20 h-20 v10 h-50 v-10 h-10 v-20 h10 z"/>

  <!-- Horse (mini) -->
  <path class="line" d="M200 80 c10 -15 30 -15 40 0 l5 10 h10 v20 h-15 v10 h-30 v-10 h-10 v-20 h5 z"/>

  <!-- Flute Player (mini) -->
  <circle class="line" cx="70" cy="180" r="10"/> <!-- head -->
  <path class="line" d="M70 190 v20 l-10 20"/> <!-- body/legs -->
  <line class="line" x1="65" y1="195" x2="90" y2="200"/> <!-- flute -->

  <!-- Sarangi Player (mini) -->
  <circle class="line" cx="230" cy="180" r="10"/>
  <path class="line" d="M230 190 v25 l10 15"/> <!-- body -->
  <path class="line" d="M240 190 v-20 l10 -5 v30 z"/> <!-- sarangi -->

  <!-- Turban motif (mini) -->
  <ellipse class="line" cx="150" cy="40" rx="12" ry="6" transform="rotate(15 150 40)"/>
  <ellipse class="line" cx="160" cy="50" rx="10" ry="5" transform="rotate(-20 160 50)"/>

  <!-- Haldi bowl (mini) -->
  <circle class="line" cx="120" cy="260" r="6"/>
  <line class="line" x1="112" y1="260" x2="128" y2="260"/>

  <!-- Sweets (mini laddus) -->
  <circle class="line" cx="180" cy="260" r="5"/>
  <circle class="line" cx="188" cy="264" r="4"/>
  <circle class="line" cx="172" cy="264" r="4"/>

  <!-- Decorative small dots -->
  <g opacity="0.3">
    <circle class="line" cx="20" cy="20" r="3"/>
    <circle class="line" cx="280" cy="20" r="3"/>
    <circle class="line" cx="20" cy="280" r="3"/>
    <circle class="line" cx="280" cy="280" r="3"/>
  </g>
</svg>
