<svg fill="#F5BE02" xmlns="http://www.w3.org/2000/svg" xmlns:xlink="http://www.w3.org/1999/xlink" xmlns:fi="http://pattern.flaticon.com/" width="700" height="350"><defs><g id="a"><path d="M97.174 195.039c-28.807 0-52.244 23.437-52.244 52.245 0 28.808 23.437 52.245 52.244 52.245 28.808 0 52.246-23.437 52.246-52.245 0-28.808-23.438-52.245-52.246-52.245zm0 83.592c-17.285 0-31.346-14.062-31.346-31.347 0-17.285 14.061-31.347 31.346-31.347 17.286 0 31.348 14.062 31.348 31.347 0 17.285-14.062 31.347-31.348 31.347z" transform="matrix(.19036 .0746 -.0746 .19036 219.366 -40.83)"/><path d="M486.633 285.446c-15.381-11.405-35.923-16.252-61.93-22.389-5.661-1.335-11.516-2.717-17.609-4.237l-.004-.001c-35.362-8.827-65.669-19.06-91.131-30.842 1.095-5.039-1.672-10.233-6.655-12.032-4.173-1.508-8.671-.186-11.421 2.97-7.685-4.187-14.832-8.552-21.456-13.098 1.375-4.471-.385-9.471-4.569-12.002-3.514-2.13-7.78-1.93-11.029.141-6.066-5.13-11.553-10.469-16.463-16.022 2.32-4.102 1.642-9.4-1.952-12.762-2.704-2.53-6.392-3.336-9.731-2.485a122.56 122.56 0 0 1-10.883-20.521c2.922-2.695 4.174-6.94 2.845-10.959-1.317-3.982-4.798-6.628-8.703-7.089-1.958-8.093-3.16-16.508-3.602-25.267a10.448 10.448 0 0 0-10.435-9.922H10.449C4.678 88.929 0 93.608 0 99.378v313.245c0 5.77 4.678 10.449 10.449 10.449h491.102c5.77 0 10.449-4.679 10.449-10.449v-65.482c0-29.257-8.061-48.862-25.367-61.695zm-80.598-5.364c4.774 1.168 9.384 2.257 13.869 3.315 44.992 10.615 67.476 15.919 70.772 53.295H377.245c.517-6.263 1.502-12.207 2.96-17.745 6.361-24.17 19.944-35.117 25.83-38.865zM20.898 109.827h171.376a151.62 151.62 0 0 0 3.575 19.896l-9.018 2.981a16.406 16.406 0 0 0-8.849-2.592c-9.11 0-16.523 7.412-16.523 16.523 0 9.112 7.412 16.524 16.523 16.524 7.027 0 13.027-4.417 15.411-10.614l8.968-2.964c3.912 9.516 8.856 18.61 14.821 27.268l-5.708 6.101c-.366-.024-.728-.056-1.1-.056-9.11 0-16.523 7.413-16.523 16.524s7.412 16.523 16.523 16.523 16.523-7.412 16.523-16.523c0-.745-.067-1.472-.162-2.192l3.575-3.82c5.642 6.237 11.89 12.212 18.744 17.916l-5.889 9.729c-8.012 1.136-14.2 8.021-14.2 16.341 0 9.112 7.413 16.524 16.523 16.524s16.523-7.413 16.523-16.524c0-1.937-.353-3.79-.969-5.519l4.803-7.935c7.47 5.082 15.53 9.939 24.206 14.578l-4.446 12.314c-6.417 2.271-11.034 8.381-11.034 15.566 0 9.112 7.412 16.523 16.523 16.523s16.523-7.413 16.523-16.523c0-3.096-.871-5.984-2.358-8.464l3.65-10.108c21.006 9.574 45.09 18.148 72.568 25.839-7.99 8.46-16.557 21.268-21.48 39.965-1.903 7.231-3.146 14.956-3.717 23.066l-335.382-.002V109.827zm470.204 292.347H20.898V357.59h470.204v44.584z" transform="matrix(.19036 .0746 -.0746 .19036 219.366 -40.83)"/><path d="M195.353 368.817h-4.678c-5.77 0-10.449 4.678-10.449 10.449 0 5.77 4.679 10.449 10.449 10.449h4.678c5.77 0 10.449-4.679 10.449-10.449 0-5.771-4.679-10.449-10.449-10.449zM156.872 368.817H55.38c-5.77 0-10.449 4.678-10.449 10.449 0 5.77 4.679 10.449 10.449 10.449h101.492c5.77 0 10.449-4.679 10.449-10.449 0-5.771-4.679-10.449-10.449-10.449z" transform="matrix(.19036 .0746 -.0746 .19036 219.366 -40.83)"/></g><path d="M405.982 217.679l-18.578-106.847c-4.233-24.346-21.156-40.703-42.112-40.703h-34.045a62.078 62.078 0 0 0-8.923-26.274c.549-1.955 1.631-4.967 2.349-6.964 3.491-9.72 6.25-17.396.528-22.808-6.577-6.221-15.29-1.943-23.717 2.194-.776.381-1.717.843-2.685 1.303-.723-6.938-1.739-15.385-9.845-17.279-7.058-1.659-12.2 3.818-17.648 9.606-1.151 1.224-2.904 3.085-4.076 4.144h-61.454c-1.177-.883-3.129-2.756-4.378-3.954-5.199-4.988-11.096-10.645-18.525-8.492-6.839 1.984-8.742 8.883-10.101 15.447-7.588-5.493-17.345-11.727-25.268-4.841-8.084 7.024-1.737 16.202.973 20.121 2.23 3.226 3.477 5.329 3.942 6.937-1.457-.183-2.997-.406-4.179-.577-9.478-1.375-19.272-2.797-22.498 5.8-2.745 7.32 2.955 12.139 11.585 19.432 1.513 1.278 3.711 3.137 5.248 4.555a61.91 61.91 0 0 0-.199 1.719c-.361-.045-37.589-.067-37.589-.067-20.952 0-37.875 16.357-42.11 40.703L24.099 217.679a8.984 8.984 0 0 0-.091 2.412l11.381 117.182a9 9 0 0 0 8.958 8.13h37.658v75.679a9 9 0 0 0 9 9H198.2a9 9 0 0 0 9-9v-32.389c4.389-.531 9.647-.531 14.034 0v32.389a9 9 0 0 0 9 9H337.43a9 9 0 0 0 9-9v-75.679h39.306a9 9 0 0 0 8.958-8.13l11.379-117.182a8.982 8.982 0 0 0-.091-2.412zM82.005 327.403h-29.49l-1.758-18.104h31.248v18.104zm107.196 84.678h-89.195V217.297l10.267-55.212a9 9 0 0 0-17.697-3.291l-10.418 56.027a9 9 0 0 0-.151 1.646v74.832H49.009l-6.968-71.736 18.37-105.646c2.069-11.896 9.695-25.788 24.376-25.788 0 0 37.724-.064 38.314-.186a61.776 61.776 0 0 0 1.372 5.806c-1.07 1.741-2.99 4.386-4.26 6.133-5.911 8.138-11.017 15.166-6.688 22.106 4.669 7.477 14.27 5.647 23.555 3.876 2.208-.422 5.615-1.071 7.596-1.237a62.337 62.337 0 0 0 15.168 9.321v95.257c0 4.971 4.029 9 9 9s9-4.029 9-9V138.67c2.146.227 11.355.342 11.355.342v273.069zm0-291.069s-11.264-.354-14.362-1.044c-7.328-1.631-14.185-5.137-19.904-10.261-4.496-4.029-10.785-3.432-18.09-2.112 4.525-6.359 7.403-11.351 5.535-16.877a44.186 44.186 0 0 1-2.327-14.186c0-2.861.279-5.738.83-8.553.774-3.966-.699-7.064-3.778-10.41 4.252-.144 7.661-1.379 9.963-4.977 3.492-5.448 4.08-10.692 3.295-15.365 3.926 2.204 7.826 3.159 11.916.781 4.836-2.818 6.266-8.233 7.478-14.138 4.343 4.147 8.884 8.18 14.577 8.18h64.959c4.754 0 8.457-2.96 12.313-6.868.807 4.789 2.406 9.105 6.934 11.324 5.56 2.719 11.462.463 18.137-2.736-2.602 7.421-4.051 13.022-.821 17.759 5.05 7.412 7.719 16.058 7.719 25.003 0 4.851-.783 9.622-2.331 14.191-1.864 5.524 1.015 10.513 5.539 16.871-7.302-1.319-13.592-1.916-18.092 2.112a44.225 44.225 0 0 1-19.469 10.162c-3.234.754-19.985 1.143-19.985 1.143v-12.786h4.64c17.476 0 31.693-14.218 31.693-31.693 0-17.478-14.218-31.696-31.693-31.696h-54.124c-17.475 0-31.691 14.219-31.691 31.696 0 17.292 13.919 31.395 31.142 31.688v12.792zm32.034-21.786v271.366a80.608 80.608 0 0 0-14.034 0V99.226a9 9 0 0 0-9-9h-8.45c-7.55 0-13.691-6.143-13.691-13.693 0-7.552 6.142-13.696 13.691-13.696h54.124c7.551 0 13.693 6.145 13.693 13.696s-6.143 13.693-13.693 13.693h-13.64a9 9 0 0 0-9 9zm156.333 228.177H346.43v-18.104h32.896l-1.758 18.104zm3.506-36.104H346.43v-74.832a9.09 9.09 0 0 0-.151-1.646l-10.418-56.027a8.989 8.989 0 0 0-10.494-7.203 9 9 0 0 0-7.203 10.494l10.267 55.211v194.785h-89.195V139.012h9.712v90.193c0 4.971 4.029 9 9 9s9-4.029 9-9c0 0-.081-92.046-.232-92.702a62.235 62.235 0 0 0 22.233-11.876c1.981.166 5.39.815 7.6 1.237 9.285 1.771 18.886 3.603 23.55-3.874 4.336-6.938-.773-13.972-6.688-22.114-1.269-1.745-3.188-4.387-4.257-6.127a62.59 62.59 0 0 0 1.338-5.62h34.802c14.685 0 22.31 13.892 24.378 25.787l18.37 105.646-6.968 71.737zm-72.218 23.941h-50.515a9 9 0 0 0-9 9v62.576a9 9 0 0 0 9 9h50.515a9 9 0 0 0 9-9V324.24a9 9 0 0 0-9-9zm-9 62.576h-32.515V333.24h32.515v44.576zm-129.76-62.576H119.58a9 9 0 0 0-9 9v62.576a9 9 0 0 0 9 9h50.517a9 9 0 0 0 9-9V324.24a9 9 0 0 0-9.001-9zm-9 62.576H128.58V333.24h32.517v44.576z" transform="rotate(-19.178 909.041 -617.775) scale(.26156)" id="c"/><path d="M392.413 230.158c7.094-10.354 10.83-22.366 10.83-35.025 0-13.11-4.006-25.528-11.6-36.126 15.557-35.022.419-76.403-34.386-92.97a7.465 7.465 0 0 0-.242-.109L295.89 40.086c.154-1.651.24-3.318.24-5 0-12.035-3.978-23.386-11.504-32.826A5.996 5.996 0 0 0 279.935 0H153.841a5.996 5.996 0 0 0-4.691 2.26c-7.526 9.441-11.504 20.792-11.504 32.826 0 1.682.086 3.349.24 5L76.761 65.928a6.603 6.603 0 0 0-.242.109c-34.805 16.567-49.942 57.949-34.386 92.97-7.594 10.598-11.6 23.017-11.6 36.126 0 12.659 3.736 24.671 10.83 35.025-7.094 10.352-10.83 22.366-10.83 35.026 0 12.659 3.736 24.672 10.83 35.025-7.094 10.354-10.83 22.367-10.83 35.025 0 12.288 3.518 23.969 10.212 34.114-3.699 8.123-5.598 16.8-5.598 25.835a6 6 0 0 0 6 6h51.972v26.592a6 6 0 0 0 6 6h236.766a6.002 6.002 0 0 0 6-6l-.002-26.591h50.745a6 6 0 0 0 6-6c0-9.036-1.898-17.712-5.598-25.835 6.694-10.145 10.212-21.826 10.212-34.114 0-12.659-3.736-24.672-10.83-35.025 7.094-10.354 10.83-22.367 10.83-35.025 0-12.661-3.735-24.674-10.829-35.027zm-10.157 133.69h-38.604a52.459 52.459 0 0 0 2.788-16.953c0-10.484-3.021-20.449-8.777-29.086a52.25 52.25 0 0 0 5.736-11.402h38.706c5.982 8.485 9.138 18.385 9.138 28.828-.001 10.355-3.103 20.177-8.987 28.613zm-330.736 0c-5.884-8.437-8.986-18.258-8.986-28.613 0-10.524 3.203-20.497 9.276-29.025h39.882a52.238 52.238 0 0 0 5.81 11.6c-5.755 8.637-8.777 18.602-8.777 29.086 0 5.861.951 11.558 2.788 16.953H51.52zm.29-197.742h37.288a53.68 53.68 0 0 0-.373 6.273c0 10.485 3.022 20.45 8.776 29.086a51.894 51.894 0 0 0-8.432 23.086H52.085c-6.255-8.613-9.551-18.733-9.551-29.418-.001-10.525 3.202-20.499 9.276-29.027zm330.156 0c6.073 8.528 9.276 18.503 9.276 29.027 0 10.684-3.296 20.805-9.551 29.418h-35.596a51.894 51.894 0 0 0-8.432-23.086c5.754-8.636 8.776-18.601 8.776-29.086 0-2.115-.13-4.208-.373-6.273h35.9zm-.138 128.301h-35.7c.2-1.875.312-3.769.312-5.684 0-10.485-3.022-20.45-8.776-29.086a51.894 51.894 0 0 0 8.432-23.086h36.146c5.893 8.44 9.001 18.269 9.001 28.633-.001 10.605-3.251 20.651-9.415 29.223zm-54.604-86.942c4.725 6.814 7.215 14.736 7.215 23.086 0 8.35-2.491 16.272-7.215 23.086H107.94c-4.725-6.814-7.215-14.736-7.215-23.086 0-8.35 2.491-16.272 7.215-23.086h219.284zM107.94 311.809c-4.725-6.814-7.215-14.736-7.215-23.086 0-8.35 2.491-16.272 7.215-23.086h219.284c4.725 6.814 7.215 14.736 7.215 23.086 0 8.35-2.491 16.272-7.215 23.086H107.94zm219.284-162.516c4.725 6.814 7.215 14.736 7.215 23.086 0 8.35-2.491 16.272-7.215 23.086H107.94c-4.725-6.814-7.215-14.736-7.215-23.086 0-8.35 2.491-16.272 7.215-23.086h219.284zm-275.69 87.258H89.07a51.894 51.894 0 0 0 8.432 23.086c-5.754 8.636-8.776 18.601-8.776 29.086 0 1.847.105 3.676.291 5.486H51.81c-6.073-8.528-9.276-18.501-9.276-29.025-.001-10.364 3.107-20.193 9-28.633zm56.407 133.432c-4.725-6.814-7.216-14.737-7.216-23.088 0-8.348 2.491-16.27 7.216-23.086h219.283c4.725 6.816 7.216 14.738 7.216 23.086 0 8.351-2.491 16.274-7.216 23.088H107.941zM81.559 76.927l58.873-24.89c1.936 5.684 4.855 11.033 8.717 15.875a5.999 5.999 0 0 0 8.432.95 5.999 5.999 0 0 0 .95-8.432c-5.813-7.291-8.886-16.055-8.886-25.345 0-4.687.783-9.241 2.305-13.539 3.714 5.358 9.833 8.911 16.783 9.111.202.021.407.031.614.031h33.545c4.342 0 7.875 3.532 7.875 7.873 0 .319.032.63.08.935V92.15a6 6 0 0 0 12 0V39.498c.048-.305.08-.616.08-.935 0-4.341 3.533-7.873 7.875-7.873h33.545c.207 0 .412-.011.614-.031 6.982-.202 13.128-3.784 16.837-9.184a40.443 40.443 0 0 1 2.331 13.611c0 9.291-3.073 18.055-8.886 25.345a6 6 0 1 0 9.382 7.482c3.862-4.842 6.782-10.191 8.717-15.875l58.874 24.89c28.831 13.801 41.363 48.119 28.477 77.179h-37.516a52.41 52.41 0 0 0-6.106-11.667 52.603 52.603 0 0 0 6.307-12.237 6 6 0 1 0-11.298-4.046 40.677 40.677 0 0 1-6.106 11.138H109.191a40.691 40.691 0 0 1-6.106-11.138 6 6 0 1 0-11.298 4.046 52.583 52.583 0 0 0 6.307 12.237 52.391 52.391 0 0 0-6.106 11.667H53.082c-12.886-29.061-.354-63.378 28.477-77.18zM50.986 375.848h34.276l-7.565 13.336H47.495a49.646 49.646 0 0 1 3.491-13.336zm171.862 45.928v-9.178a6 6 0 0 0-12 0v9.178H105.119v-20.871c0-6.586 1.245-12.932 3.674-18.922H326.21c2.429 5.991 3.673 12.337 3.673 18.922l.001 20.871H222.848zm133.23-32.592l-7.565-13.336h34.276a49.685 49.685 0 0 1 3.492 13.336h-30.203z" transform="rotate(12.892 -69.387 -166.53) scale(.25694)" id="e"/><g id="g"><path d="M409.588 494.481l-25.6-486.4A8.54 8.54 0 0 0 375.463 0H136.529a8.526 8.526 0 0 0-8.516 8.09l-25.6 486.4c-.239 4.548 3.14 8.491 7.671 8.943l85.333 8.533c4.471.384 8.55-2.671 9.267-7.117l51.311-315.204 51.311 315.196A8.547 8.547 0 0 0 315.72 512c.282 0 .563-.017.862-.043l85.333-8.533c4.532-.452 7.903-4.395 7.673-8.943zm-86.725-.307L264.418 135.16a8.533 8.533 0 0 0-16.844.009l-58.445 359.014-69.248-6.929 24.747-470.187h222.737l24.747 470.178-69.249 6.929z" transform="rotate(8.637 -1277.42 719.54) scale(.26755)"/><path d="M136 34h238v17H136z" transform="rotate(8.637 -1277.42 719.54) scale(.26755)"/><path d="M247.463 8.533v111.863c-10.752-9.907-17.058-23.919-17.067-39.074V8.533h-17.067v72.789c.017 26.778 14.899 50.859 38.852 62.839a8.467 8.467 0 0 0 3.814.905 8.535 8.535 0 0 0 4.48-1.271 8.546 8.546 0 0 0 4.053-7.262v-128h-17.065zM170.825 41.02l-1.024 5.171c-4.13 20.54-16.964 37.82-35.354 47.676h-6.451v17.067h8.533a8.587 8.587 0 0 0 3.823-.896c24.055-12.058 40.883-34.099 46.191-60.51l1.024-5.205-16.742-3.303zM377.553 93.858c-18.398-9.856-31.232-27.128-35.354-47.642l-1.024-5.205-16.751 3.302 1.033 5.24c5.308 26.377 22.144 48.418 46.182 60.476 1.186.597 2.5.905 3.823.905h8.533V93.858h-6.442z" transform="rotate(8.637 -1277.42 719.54) scale(.26755)"/></g><path d="M432.352 29.66C385.27 10.535 322.996 0 257 0 190.898 0 128.29 10.523 80.703 29.637 28.664 50.539.003 79.965 0 112.497V202.5c0 19.547 10.383 48.168 59.836 73.54 33.242 17.054 79.14 29.519 129.691 35.269C197.711 322.62 211.004 330 226 330h61c13.297 0 25.262-5.8 33.504-15h20.45c28.136 0 56.35 6.566 81.593 18.984C464.082 354.418 512 325.598 512 279.988c0-14.449-5.14-28.238-14.105-39.12C507.168 228.807 512 215.757 512 202.5v-90.004c-.004-32.55-28.29-61.973-79.648-82.836zM181 225v55c-42.227-5.816-79.93-16.527-107.473-30.656C45.461 234.945 30 218.309 30 202.5v-35.598c38.184 31.328 102.496 47.078 151.246 53.399A45.482 45.482 0 0 0 181 225zm121 60c0 8.27-6.73 15-15 15h-61c-8.27 0-15-6.73-15-15v-15h46c8.285 0 15-6.715 15-15s-6.715-15-15-15h-46v-15c0-8.27 6.73-15 15-15h61c8.27 0 15 6.73 15 15zm15.344-93.2c-8.008-7.323-18.66-11.8-30.344-11.8h-61c-11.684 0-22.336 4.477-30.344 11.8-39.383-4.265-75.539-12.741-104.195-24.312-1.277-2.437-1.461-3.968-1.461-4.633 0-3.593 7.77-15.378 43.246-26.609C166.344 125.77 210.293 120 257 120c46.563 0 90.137 5.762 122.688 16.227C410.73 146.203 422 157.617 422 162.855c0 .696-.2 2.333-1.637 4.965-28.379 11.422-64.062 19.758-103.02 23.98zm118.445 115.266C406.45 292.63 373.652 285 340.953 285H332v-60h30c36.367 0 72.297 9.512 103.898 27.504 9.93 5.652 16.102 16.184 16.102 27.484 0 23.719-24.887 37.567-46.21 27.078zM482 202.5c0 6.672-2.691 13.453-7.988 20.242a240.36 240.36 0 0 0-57.63-21.484c22.766-7.77 47.052-18.86 65.618-34.125zm-31.5-49.691c-4.395-14.489-19.7-31.664-61.633-45.145C353.43 96.274 306.597 90 257 90c-49.695 0-96.863 6.266-132.809 17.645-42.445 13.437-58.058 30.523-62.605 44.968C41.109 139.891 30 125.898 30 112.5c0-18.89 23.137-39.46 61.887-55.023C136 39.757 194.64 30 257 30c132.598 0 225 43.48 225 82.5 0 13.535-11.07 27.574-31.5 40.309zm0 0" transform="matrix(.09635 -.02248 .02248 .09635 201.35 273.447)" id="i"/><g id="k"><path d="M461.285 226.508l-76.492-5.465-50.555-84.215-25.273-42.168V82.98c.008-12.675-10.262-22.957-22.938-22.964a22.922 22.922 0 0 0-8.3 1.547l-72.688 28.039 5.492-18.434c4.336-15.496-2.699-31.922-16.906-39.477L136.59 1.051a8.83 8.83 0 0 0-11.742 3.23L41.188 138.25l-1.766-1.023a8.821 8.821 0 0 0-12.047 3.257c-.055.09-.102.18-.152.274L1.03 190.066c-2.258 4.258-.683 9.536 3.531 11.868l318.536 176.55a8.835 8.835 0 0 0 4.273 1.102h131.664c29.238-.027 52.938-23.723 52.965-52.965v-45.656c-.094-28.61-22.184-52.328-50.715-54.457zm-94.941-1.89l-10.082 3.362-78.989-102.699 20.305-15.246zM135.652 20.585l49.621 26.633a16.633 16.633 0 0 1 8.282 19.058l-7.293 24.578L135.59 60.47l-17.547-10.532zm-52.265 84.25l4.52-7.063 29.042 21.602a50.563 50.563 0 0 1 19.684 47.672l-1.102 25.512-78.894-45.473zm375.648 257.098H329.641L20.676 190.676l17.84-33.543 292.52 168.312a8.797 8.797 0 0 0 4.413 1.176h158.895c0 19.5-15.809 35.313-35.309 35.313zm35.309-52.97h-156.54l-60.546-34.859 20.355-20.753a8.826 8.826 0 0 0-.3-12.48 8.827 8.827 0 0 0-12.305.12l-23.551 24.012-33.547-19.332 33.645-26.914c3.804-3.047 4.422-8.606 1.375-12.414-3.047-3.805-8.606-4.422-12.41-1.375l-39.047 31.242-28.743-16.527 43.61-36.344a8.833 8.833 0 0 0 1.14-12.438c-3.12-3.75-8.69-4.257-12.44-1.14l-48.622 40.527-13.648-7.855 1.43-33.887a67.792 67.792 0 0 0-26.72-63.383L97.402 82.801l11.364-17.84 78.14 46.883c1.051.605 2.215.98 3.418 1.105.211 0 .395.07.61.086.21.02.343.063.511.063a8.774 8.774 0 0 0 3.196-.59l89.422-34.488a5.347 5.347 0 0 1 4.917.574 5.305 5.305 0 0 1 2.305 4.414v9.71l-31.781 23.833c-3.899 2.93-4.684 8.465-1.754 12.36.02.026.04.054.059.077l88.277 114.762a8.783 8.783 0 0 0 9.781 2.992l24.813-8.273 79.328 5.668c19.305 1.43 34.262 17.468 34.336 36.828zm0 0M52.965 256H8.828a8.829 8.829 0 0 0 0 17.656h44.137a8.829 8.829 0 0 0 0-17.656zm0 0M0 317.793a8.829 8.829 0 0 0 8.828 8.828h114.758a8.829 8.829 0 0 0 0-17.656H8.828A8.829 8.829 0 0 0 0 317.793zm0 0M220.691 361.934H8.828c-4.875 0-8.828 3.949-8.828 8.824s3.953 8.828 8.828 8.828h211.863c4.875 0 8.825-3.953 8.825-8.828s-3.95-8.824-8.825-8.824zm0 0" transform="matrix(-.17818 .02813 .02813 .17818 293.294 167.263)"/></g><g id="m"><path d="M430.997 375.405c-.246-183.157-8.752-253.847-13.322-291.824l-.63-5.255a31.494 31.494 0 0 0-22.231-26.462l-59.817-17.945V15.5c0-8.547-6.953-15.5-15.5-15.5h-176c-8.547 0-15.5 6.953-15.5 15.5v18.42L68.186 51.863a31.492 31.492 0 0 0-22.231 26.462l-.63 5.261c-4.57 37.979-13.076 108.671-13.322 291.819a15.498 15.498 0 0 0 4.569 11.043 15.577 15.577 0 0 0 3.426 2.587V407.5c0 8.547 6.953 15.5 15.5 15.5h34.445a15.594 15.594 0 0 0 6.055 6.055V447.5c0 8.547 6.953 15.5 15.5 15.5h240c8.547 0 15.5-6.953 15.5-15.5v-18.445a15.601 15.601 0 0 0 6.055-6.055h34.451c8.547 0 15.5-6.953 15.5-15.5v-18.463a15.631 15.631 0 0 0 3.426-2.587 15.505 15.505 0 0 0 4.567-11.045zm-15 .02c0 .2-.099.341-.182.424-.15.15-.282.15-.325.15h-40.493V153.986a48.295 48.295 0 0 1 3.286-17.548l23.132-59.6c.347 1.046.6 2.134.734 3.257l.633 5.278c4.533 37.669 12.971 107.785 13.215 290.052zM103.497 416a.5.5 0 0 1-.5-.5V153.986a63.25 63.25 0 0 0-4.303-22.976L73.543 66.208c-.034-.089-.078-.171-.115-.258l60.845-18.253 57.836 38.557c-.068.406-.112.82-.112 1.245v73.734c-9.29 3.138-16 11.93-16 22.266v16a7.5 7.5 0 0 0 7.5 7.5h32a7.5 7.5 0 0 0 7.5-7.5v-16c0-10.336-6.71-19.128-16-22.266V96.18l20.34 13.56c.086.057.178.097.266.15.12.073.231.156.355.223.068.037.14.062.21.096.112.056.225.106.34.155.211.092.425.174.642.245.107.035.212.071.32.101.257.072.515.128.776.172.069.012.137.028.206.038.347.049.696.08 1.045.08.172 0 .343-.026.514-.037.142-.01.285-.013.427-.031.199-.025.394-.068.591-.109.127-.027.253-.051.379-.084a7.13 7.13 0 0 0 .587-.185 7.3 7.3 0 0 0 .925-.397c.038-.02.079-.033.117-.053.069-.037.13-.085.197-.124.141-.081.288-.148.424-.239l20.34-13.56v65.054c-9.29 3.138-16 11.93-16 22.266v16a7.5 7.5 0 0 0 7.5 7.5h32a7.5 7.5 0 0 0 7.5-7.5v-16c0-10.336-6.71-19.128-16-22.266V87.5c0-.425-.044-.839-.112-1.245l57.838-38.559 60.844 18.253c-.038.087-.081.17-.116.259L364.3 131.01a63.25 63.25 0 0 0-4.303 22.976V415.5a.5.5 0 0 1-.5.5h-256zm160-241c4.687 0 8.5 3.813 8.5 8.5v8.5h-17v-8.5c0-4.687 3.813-8.5 8.5-8.5zm-21.823-87.298c3.73-10.711 11.183-19.979 21.227-25.838l57.097-33.307v6.929l-78.324 52.216zm13.669-38.795c-10.232 5.969-18.411 14.635-23.846 24.789-5.435-10.154-13.614-18.821-23.846-24.789L149.525 15H313.47l-58.127 33.907zM199.497 175c4.687 0 8.5 3.813 8.5 8.5v8.5h-17v-8.5c0-4.687 3.813-8.5 8.5-8.5zm-56.5-139.514v-6.929l57.097 33.307c10.044 5.859 17.497 15.127 21.227 25.838l-78.324-52.216zm-82.78 49.893l.633-5.283c.133-1.121.386-2.206.732-3.25l23.129 59.592a48.299 48.299 0 0 1 3.286 17.548V376H47.51c-.043 0-.175 0-.325-.15a.593.593 0 0 1-.182-.424c.244-182.258 8.681-252.377 13.214-290.047zM54.997 407.5V391h33v17h-32.5a.5.5 0 0 1-.5-.5zm296.5 40.5h-240a.5.5 0 0 1-.5-.5V431h241v16.5a.5.5 0 0 1-.5.5zm56.006-40h-32.505v-17h33.005v16.5a.5.5 0 0 1-.5.5z" transform="matrix(.23887 -.06544 .06544 .23887 64.55 38.852)"/><path d="M302.733 277.526a7.5 7.5 0 0 0-7.236-5.526h-128a7.501 7.501 0 0 0-7.236 5.526l-24 87.999a7.524 7.524 0 0 0-.264 1.974V391.5a7.5 7.5 0 0 0 7.5 7.5h176a7.5 7.5 0 0 0 7.5-7.5v-24.001c0-.667-.089-1.33-.264-1.974l-24-87.999zM311.997 384h-161v-15.497L173.226 287h116.543l22.229 81.503V384z" transform="matrix(.23887 -.06544 .06544 .23887 64.55 38.852)"/></g><g id="o"><path d="M493.661 178.346l-80-80a8.001 8.001 0 0 0-4.224-2.208l-88-16a8 8 0 0 0-9.432 7.864 47.493 47.493 0 0 1-.68 7.584l-55.32-13.824v-2.56c21.645-4.418 35.61-25.547 31.192-47.192C282.779 10.365 261.65-3.6 240.005.818c-18.621 3.801-31.996 20.179-32 39.184h16c0-13.255 10.745-24 24-24s24 10.745 24 24-10.745 24-24 24a8 8 0 0 0-8 8v9.752l-55.32 13.832a47.493 47.493 0 0 1-.68-7.584 8 8 0 0 0-2.872-6.144 7.813 7.813 0 0 0-6.56-1.72l-88 16a8.001 8.001 0 0 0-4.224 2.208l-80 80a8 8 0 0 0 0 11.312l64 64a8 8 0 0 0 11.312 0l18.344-18.344v52.688h-56C17.98 287.938.074 305.742.01 327.767a39.876 39.876 0 0 0 16.243 32.235C-1.42 372.915-5.279 397.71 7.635 415.383a39.618 39.618 0 0 0 8.618 8.618c-17.739 13.054-21.537 38.018-8.483 55.757a39.885 39.885 0 0 0 32.235 16.243h288a8 8 0 0 0 5.656-2.344l64-64a7.925 7.925 0 0 0 2.272-5.656h.072V235.314l18.344 18.344a8 8 0 0 0 11.312 0l64-64a8 8 0 0 0 0-11.312zM248.005 96.242l58.176 14.544a65.272 65.272 0 0 1-58.176 32.216 65.272 65.272 0 0 1-58.176-32.216l58.176-14.544zm-232 231.76c0-13.255 10.745-24 24-24h176c13.255 0 24 10.745 24 24s-10.745 24-24 24h-176c-13.255 0-24-10.746-24-24zm0 64c0-13.255 10.745-24 24-24h176c13.255 0 24 10.745 24 24s-10.745 24-24 24h-176c-13.255 0-24-10.746-24-24zm200 88h-176c-13.255 0-24-10.745-24-24s10.745-24 24-24h176c13.255 0 24 10.745 24 24s-10.745 24-24 24zm120-11.312v-36.688h36.688l-36.688 36.688zm88-232l-50.344-50.344-11.312 11.312 21.656 21.656v196.688h-56a8 8 0 0 0-8 8v56h-72.208c13.315-17.25 10.126-42.027-7.123-55.343a37.764 37.764 0 0 0-.877-.657c17.673-12.913 21.532-37.708 8.619-55.382a39.6 39.6 0 0 0-8.619-8.618c17.74-13.054 21.538-38.018 8.483-55.757a39.882 39.882 0 0 0-32.275-16.243h-104v-68.688l21.656-21.656-11.312-11.312-50.344 50.344-52.688-52.688 72.576-72.576 76.8-13.96c5.232 34.688 38.8 61.536 79.296 61.536 40.496 0 74.064-26.848 79.296-61.536l76.8 13.96 72.608 72.576-52.688 52.688z" transform="rotate(9.615 -330.935 1274.611) scale(.17062)"/><path d="M32 320h192v16H32zM32 384h184v16H32zM32 448h184v16H32z" transform="rotate(9.615 -330.935 1274.611) scale(.17062)"/></g><g id="q"><path d="M406.872 160.017H6.856A6.848 6.848 0 0 0 0 166.857v192.016a6.848 6.848 0 0 0 6.84 6.856h272.016a6.857 6.857 0 0 0 0-13.712H13.712V173.729H400v17.144a6.848 6.848 0 0 0 6.84 6.856h.016a6.848 6.848 0 0 0 6.856-6.84v-24.016a6.849 6.849 0 0 0-6.84-6.856zM360.36 128.185l-320-72a6.885 6.885 0 0 0-5.176.896 6.897 6.897 0 0 0-3.024 4.304l-16 72a6.86 6.86 0 0 0 13.392 2.976l14.504-65.288 313.296 70.488a6.857 6.857 0 0 0 3.008-13.376zM321.504 88.513l-192-80a6.88 6.88 0 0 0-8.8 3.272l-16 32a6.88 6.88 0 1 0 12.304 6.143v.016l13.128-26.272L316.208 101.2a6.874 6.874 0 0 0 5.296-12.687z" transform="matrix(.10292 .0407 -.0407 .10292 292.072 125.622)"/><path d="M326.352 192.017h-63.496a6.857 6.857 0 0 0 0 13.712h63.496a6.857 6.857 0 0 0 0-13.712zM198.856 192.473c-38.881 0-70.4 31.519-70.4 70.4.04 38.864 31.536 70.36 70.4 70.4 38.881 0 70.4-31.519 70.4-70.4s-31.519-70.4-70.4-70.4zm0 128c-31.812 0-57.6-25.788-57.6-57.6.035-31.797 25.803-57.565 57.6-57.6 31.812 0 57.6 25.788 57.6 57.6s-25.788 57.6-57.6 57.6zM390.856 214.873c-42.4 0-88 10.016-88 32v192c0 21.984 45.6 32 88 32s88-10.016 88-32v-192c0-21.984-45.6-32-88-32zm72 223.88c-1.208 4.44-25.2 16.12-72 16.12s-70.792-11.68-72-16v-12.576c17.024 8.576 45.144 12.576 72 12.576s54.984-4.04 72-12.584v12.464zm0-32c-1.208 4.44-25.2 16.12-72 16.12s-70.792-11.68-72-16v-12.576c17.024 8.576 45.144 12.576 72 12.576s54.984-4.04 72-12.584v12.464zm0-32c-1.208 4.44-25.2 16.12-72 16.12s-70.792-11.68-72-16v-12.576c17.024 8.576 45.144 12.576 72 12.576s54.984-4.04 72-12.584v12.464zm0-32c-1.208 4.44-25.2 16.12-72 16.12s-70.792-11.68-72-16v-12.576c17.024 8.576 45.144 12.576 72 12.576s54.984-4.04 72-12.584v12.464zm0-32c-1.208 4.44-25.2 16.12-72 16.12s-70.792-11.68-72-16v-12.576c17.024 8.536 45.144 12.576 72 12.576s54.984-4.04 72-12.584v12.464zm0-32c-1.208 4.44-25.2 16.12-72 16.12s-70.792-11.68-72-16v-12.576c17.024 8.536 45.144 12.576 72 12.576s54.984-4.04 72-12.584v12.464zm-72-15.88c-46.728 0-70.712-11.648-72-15.856v-.048c1.288-4.456 25.272-16.096 72-16.096 46.4 0 70.4 11.472 72 16-1.6 4.528-25.6 16-72 16z" transform="matrix(.10292 .0407 -.0407 .10292 292.072 125.622)"/><path d="M134.856 320.009H74.384l-28.672-31.36v-52l31.664-30.92h57.48a6.857 6.857 0 0 0 0-13.712H74.592a6.863 6.863 0 0 0-4.8 1.944l-35.736 34.856a8.594 8.594 0 0 0-2.064 5.6v56.896a6.86 6.86 0 0 0 1.792 4.624l32.504 35.552a6.855 6.855 0 0 0 5.064 2.232h63.504a6.857 6.857 0 0 0 0-13.712zM202.856 254.873h-8c-2.488 0-4-1.392-4-2 0-.608 1.512-2 4-2h20a8 8 0 0 0 0-16h-8a8 8 0 0 0-16 0v.36a18.624 18.624 0 0 0-16 17.6c.573 10.489 9.507 18.548 20 18.04h8c2.488 0 4 1.392 4 2 0 .608-1.512 2-4 2h-20a8 8 0 0 0 0 16h8a8 8 0 0 0 16 0v-.36a18.624 18.624 0 0 0 16-17.6c-.573-10.489-9.507-18.548-20-18.04z" transform="matrix(.10292 .0407 -.0407 .10292 292.072 125.622)"/></g><g id="s"><path d="M498.409 175.706L336.283 13.582C327.531 4.831 315.86.011 303.418.011c-12.441 0-24.113 4.818-32.865 13.569L13.571 270.563C4.82 279.315 0 290.985 0 303.427c0 12.442 4.82 24.114 13.571 32.864l19.992 19.992.005.005.006.006 134.36 134.36H149.33c-5.89 0-10.666 4.775-10.666 10.666 0 5.89 4.776 10.666 10.666 10.666h59.189l.041.001.041-.001 154.053.002c5.89 0 10.666-4.776 10.666-10.666 0-5.891-4.776-10.666-10.666-10.666l-113.464-.002 249.22-249.22c18.12-18.122 18.12-47.608-.001-65.728zm-15.084 50.644L226.341 483.334c-4.713 4.712-11.013 7.31-17.742 7.32h-.081c-6.727-.011-13.025-2.608-17.736-7.32L56.195 348.746 302.99 101.949c4.165-4.165 4.165-10.919 0-15.084-4.166-4.165-10.918-4.165-15.085.001L41.11 333.663l-12.456-12.456c-4.721-4.721-7.321-11.035-7.321-17.779s2.6-13.059 7.322-17.781L285.637 28.665c4.722-4.721 11.037-7.321 17.781-7.321 6.744 0 13.059 2.6 17.781 7.322l57.703 57.702-246.798 246.8c-4.165 4.164-4.165 10.918 0 15.085a10.636 10.636 0 0 0 7.542 3.123c2.729 0 5.459-1.042 7.542-3.124l246.798-246.799 89.339 89.336c9.803 9.804 9.802 25.757 0 35.561z" transform="matrix(.15745 -.01657 .01657 .15745 -31.549 159.937)"/><path d="M262.801 308.064c-4.165-4.165-10.917-4.164-15.085 0l-83.934 83.933c-4.165 4.165-4.165 10.918 0 15.085a10.633 10.633 0 0 0 7.542 3.124c2.729 0 5.459-1.042 7.542-3.124l83.934-83.933c4.166-4.167 4.166-10.92.001-15.085zM228.375 387.741l-34.425 34.425c-4.165 4.165-4.165 10.919 0 15.085a10.637 10.637 0 0 0 7.542 3.124c2.731 0 5.459-1.042 7.542-3.124l34.425-34.425c4.165-4.165 4.165-10.919 0-15.085s-10.916-4.166-15.084 0zM260.054 356.065l-4.525 4.524c-4.166 4.165-4.166 10.918-.001 15.085a10.632 10.632 0 0 0 7.542 3.125 10.63 10.63 0 0 0 7.541-3.125l4.525-4.524c4.166-4.165 4.166-10.918.001-15.084-4.163-4.165-10.918-4.166-15.083-.001zM407.073 163.793a10.666 10.666 0 0 0-15.084 0l-45.255 45.254a10.668 10.668 0 0 0 0 15.084l30.17 30.167a10.633 10.633 0 0 0 7.542 3.124c2.731 0 5.459-1.042 7.542-3.124l45.253-45.252c4.165-4.165 4.165-10.919 0-15.084l-30.168-30.169zm-22.628 67.88l-15.085-15.084 30.17-30.169 15.084 15.085-30.169 30.168zM320.339 80.186c2.731 0 5.461-1.042 7.543-3.126l4.525-4.527c4.164-4.166 4.163-10.92-.003-15.084-4.165-4.164-10.92-4.163-15.084.003l-4.525 4.527c-4.164 4.166-4.163 10.92.003 15.084a10.628 10.628 0 0 0 7.541 3.123zM107.215 358.057l-4.525 4.525c-4.165 4.164-4.165 10.918 0 15.085 2.083 2.082 4.813 3.123 7.542 3.123s5.459-1.041 7.542-3.123l4.525-4.525c4.165-4.166 4.165-10.92 0-15.085-4.166-4.166-10.918-4.166-15.084 0z" transform="matrix(.15745 -.01657 .01657 .15745 -31.549 159.937)"/></g><g id="u"><path d="M214.685 402.828c-24.829 0-45.029 20.2-45.029 45.029 0 24.829 20.2 45.029 45.029 45.029s45.029-20.2 45.029-45.029c-.001-24.829-20.201-45.029-45.029-45.029zm0 64.914c-10.966 0-19.887-8.922-19.887-19.887 0-10.966 8.922-19.887 19.887-19.887s19.887 8.922 19.887 19.887c0 10.967-8.922 19.887-19.887 19.887zM372.63 402.828c-24.829 0-45.029 20.2-45.029 45.029 0 24.829 20.2 45.029 45.029 45.029s45.029-20.2 45.029-45.029c-.001-24.829-20.201-45.029-45.029-45.029zm0 64.914c-10.966 0-19.887-8.922-19.887-19.887 0-10.966 8.922-19.887 19.887-19.887 10.966 0 19.887 8.922 19.887 19.887 0 10.967-8.922 19.887-19.887 19.887zM383.716 165.755H203.567c-6.943 0-12.571 5.628-12.571 12.571s5.629 12.571 12.571 12.571h180.149c6.943 0 12.571-5.628 12.571-12.571 0-6.944-5.628-12.571-12.571-12.571zM373.911 231.035H213.373c-6.943 0-12.571 5.628-12.571 12.571s5.628 12.571 12.571 12.571H373.91c6.943 0 12.571-5.628 12.571-12.571 0-6.942-5.628-12.571-12.57-12.571z" transform="scale(.1091) rotate(28.61 -1731.178 3653.241)"/><path d="M506.341 109.744a25.04 25.04 0 0 0-19.489-9.258H95.278L87.37 62.097a25.173 25.173 0 0 0-14.614-17.989l-55.177-23.95c-6.37-2.767-13.773.156-16.536 6.524-2.766 6.37.157 13.774 6.524 16.537L62.745 67.17l60.826 295.261c2.396 11.628 12.752 20.068 24.625 20.068h301.166c6.943 0 12.571-5.628 12.571-12.571s-5.628-12.571-12.571-12.571H148.197l-7.399-35.916H451.69c11.872 0 22.229-8.44 24.624-20.068l35.163-170.675a25.043 25.043 0 0 0-5.136-20.954zM451.69 296.301H135.619l-35.161-170.674 386.393.001-35.161 170.673z" transform="scale(.1091) rotate(28.61 -1731.178 3653.241)"/></g><path d="M147.695 123.941c-9.386 10.207-20.457 21.82-33.093 30.477C62.613 190.031 30 249.621 30 315v49.578C12.54 370.773 0 387.445 0 407v60c0 24.813 20.188 45 45 45h360c24.813 0 45-20.188 45-45v-60c0-19.555-12.54-36.227-30-42.422V315c0-64.191-31.633-124.324-84.617-160.77-12.488-8.59-23.192-19.738-33.086-30.417a105.666 105.666 0 0 0-32.621-23.817C279.196 89.375 285 75.356 285 60c0-33.086-26.914-60-60-60s-60 26.914-60 60c0 15.36 5.809 29.383 15.332 40.004a105.108 105.108 0 0 0-32.637 23.937zM420 407v60c0 8.27-6.73 15-15 15h-45v-45c0-8.285-6.715-15-15-15s-15 6.715-15 15v45h-90v-45c0-8.285-6.715-15-15-15s-15 6.715-15 15v45h-90v-45c0-8.285-6.715-15-15-15s-15 6.715-15 15v45H45c-8.27 0-15-6.73-15-15v-60c0-8.27 6.73-15 15-15h360c8.27 0 15 6.73 15 15zm-33.414-125.309A164.875 164.875 0 0 1 390 315v47H60v-47c0-11.879 1.277-23.586 3.742-34.95 9.535 13.829 25.168 22.071 42.008 22.071a50.949 50.949 0 0 0 42.48-22.734c3.973-5.957 10.356-9.375 17.52-9.375 7.16 0 13.547 3.418 17.52 9.375 9.488 14.238 25.37 22.734 42.48 22.734s32.988-8.496 42.48-22.734c3.973-5.957 10.356-9.375 17.52-9.375 7.16 0 13.547 3.418 17.52 9.375a50.943 50.943 0 0 0 42.48 22.734 50.93 50.93 0 0 0 40.836-20.43zM225 30c16.543 0 30 13.457 30 30s-13.457 30-30 30-30-13.457-30-30 13.457-30 30-30zm-55.223 114.25C183.95 128.84 204.078 120 225 120c20.89 0 41.043 8.82 55.285 24.195 10.559 11.399 23.078 24.422 38.098 34.754a165.214 165.214 0 0 1 57.941 70.336c-5.07 3.578-9.48 8.098-13.054 13.461-3.973 5.957-10.36 9.375-17.524 9.375-7.16 0-13.547-3.418-17.52-9.375a50.943 50.943 0 0 0-42.48-22.734 50.942 50.942 0 0 0-42.476 22.734c-3.973 5.957-10.36 9.375-17.524 9.375-7.16 0-13.547-3.418-17.52-9.375a50.943 50.943 0 0 0-42.48-22.734 50.942 50.942 0 0 0-42.476 22.734c-3.973 5.957-10.36 9.375-17.524 9.375-7.16 0-13.547-3.418-17.516-9.375a51.182 51.182 0 0 0-14.222-14.219c12.183-27.632 31.898-51.789 57.547-69.359 15.238-10.438 27.718-23.496 38.222-34.918zm0 0" transform="matrix(.1291 -.04108 .04108 .1291 50.804 149.193)" id="w"/><path d="M492.254 286.195l-.305-.101-105.246-38.274v-53.933a151.71 151.71 0 0 0-26.672-86.051c-.09-.133-.183-.246-.273-.367a152.555 152.555 0 0 0-125.7-66.23h-10.695C220.711 16.23 198.285-1.896 173.273.757c-21.898 2.324-39 19.984-40.613 41.949C56.82 52.77.125 117.383 0 193.887v61.058c0 5.621 4.555 10.176 10.176 10.176h138.96l41.348 32.484a232.336 232.336 0 0 0 75.223 39.118c9.617 5.09 19.336 9.941 29.195 14.41l10.442 4.75a186.523 186.523 0 0 0 143.64 4.894l42.63-15.984c16.241-6.098 24.472-24.207 18.374-40.45a31.43 31.43 0 0 0-17.734-18.128zM347.16 125.621a131.223 131.223 0 0 1 19.192 67.91 36.944 36.944 0 0 1-5.09.356c-19.668-.075-35.555-16.082-35.477-35.754a35.612 35.612 0 0 1 21.375-32.512zM213.703 61.594h20.356a131.996 131.996 0 0 1 101.253 47.32c-27.335 14.258-37.937 47.98-23.675 75.316a55.818 55.818 0 0 0 49.625 30.008c1.71 0 3.402-.203 5.09-.367v30.899H264.586v-33.918a245.765 245.765 0 0 0-48.848-146.543zm-35.617-40.707c12.094-.004 22.516 8.508 24.934 20.351h-49.864c2.418-11.843 12.84-20.355 24.93-20.351zM81.41 196.105v48.665H20.352v-50.883c.105-59.918 40.437-112.297 98.335-127.715l-4 6.867A244.382 244.382 0 0 0 81.41 196.105zm20.356 48.665v-48.665a224.016 224.016 0 0 1 30.527-112.804L144.719 62c2.644-.164 5.273-.406 7.957-.406h35.617l11.195 14.918a225.363 225.363 0 0 1 44.778 134.328v33.93zm172.379 73.41c-12.293-6.532-24.375-13.493-36.086-20.953l-50.465-32.106h187.144l84.117 30.59-49.863 18.379a214.712 214.712 0 0 1-134.847 4.09zm210.316 7.53l-42.629 15.99A166 166 0 0 1 342 347.171a232.178 232.178 0 0 0 74.004-13.98l71.45-26.348a11.31 11.31 0 0 1 4.202 8.61 10.816 10.816 0 0 1-7.195 10.257zm0 0" transform="rotate(-56.31 263.615 118.21) scale(.14717)" id="y"/><g id="A"><path d="M162.389 176.486c-21.546-5.984-42.798-8.893-64.969-8.893-15.244 0-31.05 1.445-46.979 4.296a6.002 6.002 0 0 0-4.875 5.003c-.293 1.924-6.917 47.419 15.916 73.994 10.466 12.182 25.26 18.358 43.965 18.358h.088c46.796 0 64.079-39.125 70.603-53.962.904-1.926 6.86-15.436 1.632-26.76-1.909-4.128-6.134-9.571-15.381-12.036zm-93.58 11.762c-.37 5.516-.48 10.707-.326 15.43a5.999 5.999 0 0 1-6.001 6.195 5.999 5.999 0 0 1-5.993-5.805c-.166-5.119-.05-10.713.348-16.624.222-3.306 3.079-5.814 6.389-5.585a6 6 0 0 1 5.583 6.389z" transform="rotate(99.09 4.857 84.668) scale(.10238)"/><path d="M429.608 150.648c-58.881-13.516-116.073-12.331-185.439 3.838l-1.437.335c-8.081 1.89-18.707 4.149-25.599 4.149-7.008 0-17.518-2.26-25.599-4.149l-1.437-.335C120.73 138.317 63.54 137.133 4.659 150.648a6 6 0 0 0-4.59 6.753l4.208 27.566a5.997 5.997 0 0 0 8.042 4.711c2.39-.897 4.281-.903 5.622-.015 1.589 1.054 2.685 3.465 2.791 6.143 1.358 34.088 7.998 57.215 20.895 72.783 13.53 16.333 34.279 24.29 63.433 24.323h.126c57.981-.001 80.766-41.6 95.846-69.134 2.096-3.826 4.075-7.439 5.986-10.662a5.94 5.94 0 0 0 .209-.385c3.354-6.729 7.162-9.121 9.637-9.121l.068.001a13.47 13.47 0 0 0 .402 0l.068-.001c2.475 0 6.283 2.392 9.637 9.121.065.131.135.26.209.385 1.911 3.223 3.891 6.836 5.986 10.662 15.081 27.535 37.857 69.139 95.847 69.134h.126c29.152-.033 49.901-7.99 63.432-24.323 12.896-15.568 19.536-38.695 20.895-72.783.106-2.678 1.202-5.089 2.791-6.143 1.341-.889 3.232-.883 5.622.015a5.996 5.996 0 0 0 8.042-4.711l4.208-27.566a5.998 5.998 0 0 0-4.589-6.753zm-10.544 26.369c-3.403-.074-6.619.821-9.372 2.646-4.84 3.21-7.886 9.066-8.148 15.665-1.249 31.321-7.015 52.168-18.146 65.606-11.267 13.601-28.49 19.949-54.203 19.978h-.115c-22.49 0-40.778-6.873-55.903-21.01-13.267-12.4-21.847-28.066-29.417-41.889-2.107-3.848-4.1-7.485-6.08-10.834-7.169-14.223-16.739-15.624-20.523-15.566h-.008c-3.78-.053-13.377 1.316-20.561 15.566-1.98 3.349-3.973 6.986-6.08 10.834-7.57 13.822-16.15 29.488-29.417 41.889-15.15 14.161-33.493 21.035-56.018 21.01-25.714-.029-42.938-6.378-54.204-19.978-11.131-13.438-16.896-34.284-18.146-65.606-.263-6.599-3.309-12.455-8.148-15.665-2.753-1.826-5.961-2.723-9.372-2.646l-2.424-15.879c55.116-11.79 109.244-10.198 174.595 5.034l1.429.334c8.655 2.023 21.409 4.409 28.327 4.409 7.301 0 19.68-2.386 28.335-4.409l1.429-.334c65.351-15.232 119.477-16.824 174.595-5.034l-2.425 15.879z" transform="rotate(99.09 4.857 84.668) scale(.10238)"/><path d="M271.938 176.47c-9.307 2.482-13.532 7.924-15.44 12.053-5.228 11.323.728 24.834 1.632 26.76 6.523 14.837 23.807 53.962 70.603 53.962h.082c18.711 0 33.505-6.177 43.971-18.358 22.833-26.575 16.209-72.07 15.916-73.994a6.002 6.002 0 0 0-4.875-5.003c-15.93-2.851-31.735-4.296-46.979-4.296-22.171-.001-43.423 2.907-64.91 8.876zm56.795 86.772v.002-.002z" transform="rotate(99.09 4.857 84.668) scale(.10238)"/></g><path d="M497 360h-15V195c0-1.203-.2-2.648-.45-3.637L452 73.156V15c0-8.285-6.715-15-15-15H75c-8.285 0-15 6.715-15 15v58.156L30.45 191.363c-.227.899-.45 2.446-.45 3.637v165H15c-8.285 0-15 6.715-15 15v60c0 8.285 6.715 15 15 15h211c8.285 0 15-6.715 15-15V255c0-8.27 6.73-15 15-15s15 6.73 15 15v180c0 8.285 6.715 15 15 15h211c8.285 0 15-6.715 15-15v-60c0-8.285-6.715-15-15-15zm-49.676-181.855c-43.695-8.32-77.879-43.797-84.25-88.145h62.215zM86.711 89.988h62.215c-6.371 44.348-40.555 79.836-84.25 88.157zM211 420H30v-30h181zm30-207.422c-17.46 6.195-29.988 22.867-29.988 42.422l-.004 105H60V209.16c62.48-6.937 112.223-56.683 119.16-119.16H241zM90 60V30h332v30zm181 152.578V90h61.84c6.937 62.48 56.68 112.223 119.16 119.16V360H301V255c0-19.555-12.54-36.227-30-42.422zM482 420H301v-30h181zm0 0" transform="scale(.123) rotate(21.615 -6421.508 2193.421)" id="C"/><g id="E" fill="rgba(0,0,0,0.1)"><path d="M389.55 139.977c5.52 0 10-4.477 10-9.997s-4.48-10-10-10-9.995 4.48-9.995 10 4.476 9.997 9.996 9.997zm0 0M269.57 99.984c-5.52 0-10 4.48-10 10 0 5.516 4.48 9.996 10 9.996s10-4.48 10-9.996c0-5.52-4.48-10-10-10zm0 0" transform="rotate(9.858 -1544.449 535.464) scale(.07023)"/><path d="M148.465 480.531c31.644 33.293 81.574 41.059 121.828 19.028l.203-.122.11-.058c12.867-7.09 7.511-4.762 142.304-110.531 16.926-13.356 26.633-33.387 26.633-54.95V29.996c0-5.523-4.477-10-10-10h-109.98V10c0-5.523-4.477-10-10-10H129.59c-5.52 0-9.996 4.477-9.996 10v244.504c-78.07 54.91-77.434 53.633-84.758 60.113-.035.031-.07.067-.11.102-.062.054-.128.105-.19.164-.036.031-.063.066-.095.097-38.984 34.61-45.355 93.61-14.074 135.883 29.004 39.223 83.238 52.992 128.098 29.668zm17.082-11.18l46.855-36.968 38.055 54.344c-29.223 11.093-62.312 4.343-84.91-17.375zm102.719 7.95l-40.137-57.32 64.8-51.13c16.926-13.355 26.634-33.386 26.634-54.953V179.973h99.984v93.953c-44.93 4.988-79.988 43.187-79.988 89.426 0 16.964 4.625 33.128 13.43 47.304-84.993 66.973-80.528 63.711-84.723 66.645zm-28.692-133.946c0-35.195 26.121-64.394 59.992-69.261v39.804c0 15.41-6.933 29.715-19.02 39.254l-31.71 25.02c-6.074-10.54-9.262-22.402-9.262-34.817zM139.59 119.98h89.988c5.52 0 9.996-4.476 9.996-9.996 0-5.523-4.476-10-9.996-10H139.59V79.988h159.976v59.989H139.59zm59.992-59.988V19.996h39.992v39.996zm219.965 99.985h-99.985v-20h29.997c5.52 0 9.996-4.477 9.996-9.997 0-5.523-4.477-10-9.996-10h-29.997V99.984h99.985zm-99.985-79.989V39.992h39.993v39.996zm80.965 293.16l-31.71 25.02c-6.075-10.54-9.262-22.402-9.262-34.816 0-35.196 26.12-64.395 59.992-69.262v39.808c0 15.407-6.934 29.711-19.02 39.25zm19.02-293.16h-39.992V39.992h39.992zm-119.98-19.996H259.57V19.996h39.996zM179.585 19.996v39.996H139.59V19.996zm-44.258 247.902a9.995 9.995 0 0 0 4.262-8.191v-99.73h159.976v93.953c-44.93 4.988-79.988 43.187-79.988 89.425 0 16.965 4.625 33.13 13.43 47.301-84.89 66.903-80.64 63.805-84.723 66.649l-93.25-133.188c11.672-8.176 67.828-47.492 80.293-56.219zm-95.215 69.774l90.348 129.039c-32.871 12.367-71.543 2.652-94.016-27.738-22.66-30.621-20.52-73.07 3.668-101.301zm0 0" transform="rotate(9.858 -1544.449 535.464) scale(.07023)"/></g></defs><g fi:class="KUsePattern"><pattern id="b" width="350" height="350" patternUnits="userSpaceOnUse"><use xlink:href="#a" x="-350" y="-350"/><use xlink:href="#a" y="-350"/><use xlink:href="#a" x="350" y="-350"/><use xlink:href="#a" x="-350"/><use xlink:href="#a"/><use xlink:href="#a" x="350"/><use xlink:href="#a" x="-350" y="350"/><use xlink:href="#a" y="350"/><use xlink:href="#a" x="350" y="350"/></pattern><rect width="100%" height="100%" fill="url(#b)"/></g><g fi:class="KUsePattern"><pattern id="d" width="350" height="350" patternUnits="userSpaceOnUse"><use xlink:href="#c" x="-350" y="-350"/><use xlink:href="#c" y="-350"/><use xlink:href="#c" x="350" y="-350"/><use xlink:href="#c" x="-350"/><use xlink:href="#c"/><use xlink:href="#c" x="350"/><use xlink:href="#c" x="-350" y="350"/><use xlink:href="#c" y="350"/><use xlink:href="#c" x="350" y="350"/></pattern><rect width="100%" height="100%" fill="url(#d)"/></g><g fi:class="KUsePattern"><pattern id="f" width="350" height="350" patternUnits="userSpaceOnUse"><use xlink:href="#e" x="-350" y="-350"/><use xlink:href="#e" y="-350"/><use xlink:href="#e" x="350" y="-350"/><use xlink:href="#e" x="-350"/><use xlink:href="#e"/><use xlink:href="#e" x="350"/><use xlink:href="#e" x="-350" y="350"/><use xlink:href="#e" y="350"/><use xlink:href="#e" x="350" y="350"/></pattern><rect width="100%" height="100%" fill="url(#f)"/></g><g fi:class="KUsePattern"><pattern id="h" width="350" height="350" patternUnits="userSpaceOnUse"><use xlink:href="#g" x="-350" y="-350"/><use xlink:href="#g" y="-350"/><use xlink:href="#g" x="350" y="-350"/><use xlink:href="#g" x="-350"/><use xlink:href="#g"/><use xlink:href="#g" x="350"/><use xlink:href="#g" x="-350" y="350"/><use xlink:href="#g" y="350"/><use xlink:href="#g" x="350" y="350"/></pattern><rect width="100%" height="100%" fill="url(#h)"/></g><g fi:class="KUsePattern"><pattern id="j" width="350" height="350" patternUnits="userSpaceOnUse"><use xlink:href="#i" x="-350" y="-350"/><use xlink:href="#i" y="-350"/><use xlink:href="#i" x="350" y="-350"/><use xlink:href="#i" x="-350"/><use xlink:href="#i"/><use xlink:href="#i" x="350"/><use xlink:href="#i" x="-350" y="350"/><use xlink:href="#i" y="350"/><use xlink:href="#i" x="350" y="350"/></pattern><rect width="100%" height="100%" fill="url(#j)"/></g><g fi:class="KUsePattern"><pattern id="l" width="350" height="350" patternUnits="userSpaceOnUse"><use xlink:href="#k" x="-350" y="-350"/><use xlink:href="#k" y="-350"/><use xlink:href="#k" x="350" y="-350"/><use xlink:href="#k" x="-350"/><use xlink:href="#k"/><use xlink:href="#k" x="350"/><use xlink:href="#k" x="-350" y="350"/><use xlink:href="#k" y="350"/><use xlink:href="#k" x="350" y="350"/></pattern><rect width="100%" height="100%" fill="url(#l)"/></g><g fi:class="KUsePattern"><pattern id="n" width="350" height="350" patternUnits="userSpaceOnUse"><use xlink:href="#m" x="-350" y="-350"/><use xlink:href="#m" y="-350"/><use xlink:href="#m" x="350" y="-350"/><use xlink:href="#m" x="-350"/><use xlink:href="#m"/><use xlink:href="#m" x="350"/><use xlink:href="#m" x="-350" y="350"/><use xlink:href="#m" y="350"/><use xlink:href="#m" x="350" y="350"/></pattern><rect width="100%" height="100%" fill="url(#n)"/></g><g fi:class="KUsePattern"><pattern id="p" width="350" height="350" patternUnits="userSpaceOnUse"><use xlink:href="#o" x="-350" y="-350"/><use xlink:href="#o" y="-350"/><use xlink:href="#o" x="350" y="-350"/><use xlink:href="#o" x="-350"/><use xlink:href="#o"/><use xlink:href="#o" x="350"/><use xlink:href="#o" x="-350" y="350"/><use xlink:href="#o" y="350"/><use xlink:href="#o" x="350" y="350"/></pattern><rect width="100%" height="100%" fill="url(#p)"/></g><g fi:class="KUsePattern"><pattern id="r" width="350" height="350" patternUnits="userSpaceOnUse"><use xlink:href="#q" x="-350" y="-350"/><use xlink:href="#q" y="-350"/><use xlink:href="#q" x="350" y="-350"/><use xlink:href="#q" x="-350"/><use xlink:href="#q"/><use xlink:href="#q" x="350"/><use xlink:href="#q" x="-350" y="350"/><use xlink:href="#q" y="350"/><use xlink:href="#q" x="350" y="350"/></pattern><rect width="100%" height="100%" fill="url(#r)"/></g><g fi:class="KUsePattern"><pattern id="t" width="350" height="350" patternUnits="userSpaceOnUse"><use xlink:href="#s" x="-350" y="-350"/><use xlink:href="#s" y="-350"/><use xlink:href="#s" x="350" y="-350"/><use xlink:href="#s" x="-350"/><use xlink:href="#s"/><use xlink:href="#s" x="350"/><use xlink:href="#s" x="-350" y="350"/><use xlink:href="#s" y="350"/><use xlink:href="#s" x="350" y="350"/></pattern><rect width="100%" height="100%" fill="url(#t)"/></g><g fi:class="KUsePattern"><pattern id="v" width="350" height="350" patternUnits="userSpaceOnUse"><use xlink:href="#u" x="-350" y="-350"/><use xlink:href="#u" y="-350"/><use xlink:href="#u" x="350" y="-350"/><use xlink:href="#u" x="-350"/><use xlink:href="#u"/><use xlink:href="#u" x="350"/><use xlink:href="#u" x="-350" y="350"/><use xlink:href="#u" y="350"/><use xlink:href="#u" x="350" y="350"/></pattern><rect width="100%" height="100%" fill="url(#v)"/></g><g fi:class="KUsePattern"><pattern id="x" width="350" height="350" patternUnits="userSpaceOnUse"><use xlink:href="#w" x="-350" y="-350"/><use xlink:href="#w" y="-350"/><use xlink:href="#w" x="350" y="-350"/><use xlink:href="#w" x="-350"/><use xlink:href="#w"/><use xlink:href="#w" x="350"/><use xlink:href="#w" x="-350" y="350"/><use xlink:href="#w" y="350"/><use xlink:href="#w" x="350" y="350"/></pattern><rect width="100%" height="100%" fill="url(#x)"/></g><g fi:class="KUsePattern"><pattern id="z" width="350" height="350" patternUnits="userSpaceOnUse"><use xlink:href="#y" x="-350" y="-350"/><use xlink:href="#y" y="-350"/><use xlink:href="#y" x="350" y="-350"/><use xlink:href="#y" x="-350"/><use xlink:href="#y"/><use xlink:href="#y" x="350"/><use xlink:href="#y" x="-350" y="350"/><use xlink:href="#y" y="350"/><use xlink:href="#y" x="350" y="350"/></pattern><rect width="100%" height="100%" fill="url(#z)"/></g><g fi:class="KUsePattern"><pattern id="B" width="350" height="350" patternUnits="userSpaceOnUse"><use xlink:href="#A" x="-350" y="-350"/><use xlink:href="#A" y="-350"/><use xlink:href="#A" x="350" y="-350"/><use xlink:href="#A" x="-350"/><use xlink:href="#A"/><use xlink:href="#A" x="350"/><use xlink:href="#A" x="-350" y="350"/><use xlink:href="#A" y="350"/><use xlink:href="#A" x="350" y="350"/></pattern><rect width="100%" height="100%" fill="url(#B)"/></g><g fi:class="KUsePattern"><pattern id="D" width="350" height="350" patternUnits="userSpaceOnUse"><use xlink:href="#C" x="-350" y="-350"/><use xlink:href="#C" y="-350"/><use xlink:href="#C" x="350" y="-350"/><use xlink:href="#C" x="-350"/><use xlink:href="#C"/><use xlink:href="#C" x="350"/><use xlink:href="#C" x="-350" y="350"/><use xlink:href="#C" y="350"/><use xlink:href="#C" x="350" y="350"/></pattern><rect width="100%" height="100%" fill="url(#D)"/></g><g fi:class="KUsePattern"><pattern id="F" width="350" height="350" patternUnits="userSpaceOnUse"><use xlink:href="#E" x="-350" y="-350"/><use xlink:href="#E" y="-350"/><use xlink:href="#E" x="350" y="-350"/><use xlink:href="#E" x="-350"/><use xlink:href="#E"/><use xlink:href="#E" x="350"/><use xlink:href="#E" x="-350" y="350"/><use xlink:href="#E" y="350"/><use xlink:href="#E" x="350" y="350"/></pattern><rect width="100%" height="100%" fill="url(#F)"/></g></svg>